<?xml version="1.0" standalone="no"?><!DOCTYPE svg PUBLIC "-//W3C//DTD SVG 1.1//EN" "http://www.w3.org/Graphics/SVG/1.1/DTD/svg11.dtd"><svg t="1644585369028" class="icon" viewBox="0 0 1024 1024" version="1.1" xmlns="http://www.w3.org/2000/svg" p-id="2035" width="25" height="25" xmlns:xlink="http://www.w3.org/1999/xlink"><defs><style type="text/css"></style></defs><path d="M896 448H128v447.957333l477.738667 0.021334L896 895.957333V448z m0-42.666667V192.042667C896 192 768 192 768 192V149.333333h128.042667A42.666667 42.666667 0 0 1 938.666667 192.042667v703.914666A42.624 42.624 0 0 1 896.064 938.666667H127.936A42.666667 42.666667 0 0 1 85.333333 895.957333V192.042667C85.333333 168.469333 104.256 149.333333 127.957333 149.333333H256v42.666667l-128 0.042667V405.333333h768zM298.666667 85.333333h42.666666v170.666667h-42.666666V85.333333z m384 0h42.666666v170.666667h-42.666666V85.333333zM384 149.333333h256v42.666667H384V149.333333z" fill="#e6e6e6" p-id="2036"></path></svg>