<?xml version="1.0" standalone="no"?><!DOCTYPE svg PUBLIC "-//W3C//DTD SVG 1.1//EN" "http://www.w3.org/Graphics/SVG/1.1/DTD/svg11.dtd"><svg t="1642768960739" class="icon" viewBox="0 0 1024 1024" version="1.1" xmlns="http://www.w3.org/2000/svg" p-id="5620" width="17" height="17" xmlns:xlink="http://www.w3.org/1999/xlink"><defs><style type="text/css"></style></defs><path d="M892.256171 955.226013h-764.710754c-18.992816 0-34.287031 15.394177-34.287031 34.287031s15.394177 34.287031 34.287031 34.287032h764.710754c18.992816 0 34.287031-15.394177 34.287031-34.287032s-15.294215-34.287031-34.287031-34.287031zM171.728705 890.650438c6.797429 4.898147 14.694442 7.397202 22.691417 7.397202 5.198034 0 10.296106-0.999622 15.294215-3.19879L396.04386 815.378909c11.595614-4.99811 21.691795-12.995085 29.188959-23.29119l20.592211-28.489224c0.099962-0.199924 0.299887-0.299887 0.399849-0.499811 0.099962-0.099962 0.099962-0.299887 0.199924-0.399849l404.646946-560.887848c22.591455-31.188203 15.594102-74.971643-15.594102-97.563098l-125.752435-90.965593c-31.188203-22.591455-74.87168-15.694064-97.563098 15.594102L186.423147 619.15313c-7.397202 10.296106-11.895501 22.291568-12.995085 34.886805l-17.593345 201.823661c-1.199546 13.69482 4.698223 26.689905 15.893988 34.786842z m469.822293-772.907653c1.299508-1.799319 3.398714-2.798941 5.497921-2.798942 1.399471 0 2.798941 0.399849 3.898525 1.299509l108.458976 78.670243c2.998866 2.199168 3.698601 6.39758 1.499433 9.396446L427.232063 666.935057l-119.354855-86.567257 333.67379-462.625015z m-368.760519 512.806035c0.099962-1.199546 0.499811-2.399093 1.299509-3.398715l2.399092-3.298752 119.354855 86.567257-2.399092 3.398714c-0.699735 0.999622-1.699357 1.799319-2.798942 2.299131l-130.050809 55.479015 12.195387-141.04665z" p-id="5621"></path></svg>