<?xml version="1.0" standalone="no"?><!DOCTYPE svg PUBLIC "-//W3C//DTD SVG 1.1//EN" "http://www.w3.org/Graphics/SVG/1.1/DTD/svg11.dtd"><svg t="1643040020258" class="icon" viewBox="0 0 1024 1024" version="1.1" xmlns="http://www.w3.org/2000/svg" p-id="2045" width="17" height="17" xmlns:xlink="http://www.w3.org/1999/xlink"><defs><style type="text/css"></style></defs><path d="M842.7781 825.197188c0 11.227716-9.096169 20.315698-20.315698 20.315698L131.709229 845.512886c-11.219529 0-20.315698-9.087982-20.315698-20.315698L111.393531 337.605088c0-11.200086 9.096169-20.308535 20.315698-20.308535l203.163119 0 0-40.640606L111.393531 276.655947c-22.440082 0-40.633443 18.203594-40.633443 40.640606l0 528.216333c0 22.448268 18.193361 40.631396 40.633443 40.631396L842.7781 886.144282c22.441105 0 40.634466-18.184151 40.634466-40.631396L883.412566 662.665465 842.7781 662.665465 842.7781 825.197188zM950.519963 315.047326 763.765559 128.290875l-28.739555 28.728298 139.974985 139.951449-154.120147 0 0 1.360997C482.572272 312.140113 292.06745 485.590514 275.600407 703.307094l40.652885 0C332.69066 507.940544 505.090125 352.495216 720.880843 338.952782l0-1.347694 154.109913 0L735.026004 477.574956l28.739555 28.728298 186.754405-186.754405-2.25025-2.25332L950.519963 315.047326z" p-id="2046"></path></svg>