<?xml version="1.0" standalone="no"?><!DOCTYPE svg PUBLIC "-//W3C//DTD SVG 1.1//EN" "http://www.w3.org/Graphics/SVG/1.1/DTD/svg11.dtd"><svg t="1648648140070" class="icon" viewBox="0 0 1024 1024" version="1.1" xmlns="http://www.w3.org/2000/svg" p-id="4884" data-spm-anchor-id="a313x.7781069.0.i9" width="25" height="25" xmlns:xlink="http://www.w3.org/1999/xlink"><defs><style type="text/css">@font-face { font-family: feedback-iconfont; src: url("//at.alicdn.com/t/font_1031158_u69w8yhxdu.woff2?t=1630033759944") format("woff2"), url("//at.alicdn.com/t/font_1031158_u69w8yhxdu.woff?t=1630033759944") format("woff"), url("//at.alicdn.com/t/font_1031158_u69w8yhxdu.ttf?t=1630033759944") format("truetype"); }
</style></defs><path d="M128 420.576v200.864h149.12l175.456 140.064V284.288l-169.792 136.288H128z m132.256-64l204.288-163.968a32 32 0 0 1 52.032 24.96v610.432a32 32 0 0 1-51.968 24.992l-209.92-167.552H96a32 32 0 0 1-32-32v-264.864a32 32 0 0 1 32-32h164.256zM752 458.656L870.4 300.8a32 32 0 1 1 51.2 38.4L792 512l129.6 172.8a32 32 0 0 1-51.2 38.4l-118.4-157.856-118.4 157.856a32 32 0 0 1-51.2-38.4l129.6-172.8-129.6-172.8a32 32 0 0 1 51.2-38.4l118.4 157.856z" p-id="4885" fill="#2C3E50"></path></svg>