<?xml version="1.0" standalone="no"?><!DOCTYPE svg PUBLIC "-//W3C//DTD SVG 1.1//EN" "http://www.w3.org/Graphics/SVG/1.1/DTD/svg11.dtd"><svg t="1638936397702" class="icon" viewBox="0 0 1170 1024" version="1.1" xmlns="http://www.w3.org/2000/svg" p-id="33088" data-spm-anchor-id="a313x.7781069.0.i7" width="28.564453125" height="25" xmlns:xlink="http://www.w3.org/1999/xlink"><defs><style type="text/css"></style></defs><path d="M805.980571 607.187429l-0.668571 0.668571a22.582857 22.582857 0 0 0-5.957714 19.652571l29.435428 178.948572c7.485714 45.548571-39.405714 81.096-79.894857 58.608l-153.864-84.792a18.414857 18.414857 0 0 0-18.157714 0l-153.864 84.76c-40.585143 22.552-87.859429-13.154286-79.958857-58.608l29.371428-178.438857c1.210286-8.185143-1.083429-15.512-6.434285-20.672L241.332571 480.350857c-31.728-32.235429-14.334857-88.104 30.518858-95.238857l172.276571-26.437714a20.004571 20.004571 0 0 0 14.971429-12.104l76.454857-162.765715A54.155429 54.155429 0 0 1 584.884571 152a54.155429 54.155429 0 0 1 49.329143 31.803429L710.857143 346.857143c2.708571 5.988571 8.92 10.733714 14.653714 11.785143l172.787429 26.437714c44.884571 6.689143 62.373714 62.748571 30.772571 94.857143L805.980571 607.186286z" p-id="33089"></path></svg>