<?xml version="1.0" standalone="no"?><!DOCTYPE svg PUBLIC "-//W3C//DTD SVG 1.1//EN" "http://www.w3.org/Graphics/SVG/1.1/DTD/svg11.dtd"><svg t="1644913718485" class="icon" viewBox="0 0 1024 1024" version="1.1" xmlns="http://www.w3.org/2000/svg" p-id="2263" width="20" height="20" xmlns:xlink="http://www.w3.org/1999/xlink"><defs><style type="text/css"></style></defs><path d="M249 460.2h-71.4c-20.2 0-36.6 16.4-36.6 36.6v372.6c0 20.2 16.4 36.6 36.6 36.6H249c20.2 0 36.6-16.4 36.6-36.6V496.8c-0.1-20.2-16.4-36.6-36.6-36.6zM868.9 462.4c-11.6-15.1-29.2-23.7-48.2-23.7H641.9c-6.9 0-10.4-4.6-11.6-6.5-1.2-2-3.7-7.4-0.2-13.8 13.6-25.1 22-50.1 25.1-74.3 4.5-35.5 8.6-123.2-8.6-170.3-5.4-15-18-50.1-66.8-53.3-1-0.1-2 0-3 0-56.1 4.2-66 44.4-69.2 57.6-2 8.2-4.1 17.7-6.4 28-8.3 37.9-19.7 89.7-39.7 124.6-38.9 67.9-132.5 132.7-133.1 133.1-0.6 0.4-0.9 1-1.5 1.4-7.7 2.7-13.3 9.8-13.3 18.4v400.9c0 6.1 3 11.4 7.4 15 3.9 4 9.3 6.5 15.4 6.5h393.1c25.8 0 48.3-17.4 54.8-42.4L879.6 515c4.8-18.4 0.9-37.5-10.7-52.6z" fill="#EC4141" p-id="2264"></path></svg>