<?xml version="1.0" standalone="no"?><!DOCTYPE svg PUBLIC "-//W3C//DTD SVG 1.1//EN" "http://www.w3.org/Graphics/SVG/1.1/DTD/svg11.dtd"><svg t="1639754500962" class="icon" viewBox="0 0 1024 1024" version="1.1" xmlns="http://www.w3.org/2000/svg" p-id="919" xmlns:xlink="http://www.w3.org/1999/xlink" width="25" height="25"><defs><style type="text/css"></style></defs><path d="M130.2 848.89c-17.14 0-31.59-14.44-31.59-32.03 0-17.38 14.44-32.05 31.59-32.05h33.62c17.14 0 31.82 14.67 31.82 32.05 0 17.58-14.67 32.03-31.82 32.03H130.2z m228.83-610.58c-17.17 0-31.61-14.24-31.61-31.61 0-17.58 14.44-31.59 31.61-31.59h534.33c17.58 0 32.02 14 32.02 31.59 0 17.37-14.44 31.61-32.02 31.61H359.03z m-228.83 0c-17.14 0-31.59-14.24-31.59-31.61 0-17.58 14.44-31.59 31.59-31.59h33.62c17.14 0 31.82 14 31.82 31.59 0 17.37-14.67 31.61-31.82 31.61H130.2z m228.83 203.52c-17.17 0-31.61-14.44-31.61-31.82 0-17.58 14.44-31.82 31.61-31.82h534.33c17.58 0 32.02 14.24 32.02 31.82 0 17.38-14.44 31.82-32.02 31.82H359.03z m-228.83 0c-17.14 0-31.59-14.44-31.59-31.82 0-17.58 14.44-31.82 31.59-31.82h33.62c17.14 0 31.82 14.24 31.82 31.82 0 17.38-14.67 31.82-31.82 31.82H130.2z m228.83 203.54c-17.17 0-31.61-14.21-31.61-31.59 0-17.61 14.44-32.05 31.61-32.05h534.33c17.58 0 32.02 14.44 32.02 32.05 0 17.38-14.44 31.59-32.02 31.59H359.03z m-228.83 0c-17.14 0-31.59-14.21-31.59-31.59 0-17.61 14.44-32.05 31.59-32.05h33.62c17.14 0 31.82 14.44 31.82 32.05 0 17.38-14.67 31.59-31.82 31.59H130.2z m228.83 203.52c-17.17 0-31.61-14.44-31.61-32.03 0-17.38 14.44-32.05 31.61-32.05h534.33c17.58 0 32.02 14.67 32.02 32.05 0 17.58-14.44 32.03-32.02 32.03H359.03z" fill="#717071" p-id="920"></path></svg>