<?xml version="1.0" standalone="no"?><!DOCTYPE svg PUBLIC "-//W3C//DTD SVG 1.1//EN" "http://www.w3.org/Graphics/SVG/1.1/DTD/svg11.dtd"><svg t="1640702271651" class="icon" viewBox="0 0 1030 1024" version="1.1" xmlns="http://www.w3.org/2000/svg" p-id="11783" width="28.1640625" height="28" xmlns:xlink="http://www.w3.org/1999/xlink"><defs><style type="text/css"></style></defs><path d="M516.831503 1023.651574C234.60666 1023.651574 4.994102 794.039016 4.994102 511.814173S234.60666 0 516.831503 0 1028.668905 229.589329 1028.668905 511.814173 799.056347 1023.651574 516.831503 1023.651574z m0-947.021141c-239.972416 0-435.18374 195.211324-435.18374 435.18374s195.211324 435.18374 435.18374 435.18374 435.18374-195.211324 435.183741-435.18374S756.80392 76.630433 516.831503 76.630433z" p-id="11784" fill="#EC4141"></path><path d="M752.436984 503.800381l-308.26386-211.401506-0.069685 0.092913a35.60911 35.60911 0 0 0-24.598857-9.779148c-19.627983 0-35.562653 15.748843-35.562653 35.237455 0 10.661827-0.464568 31.613828 0 31.149261v391.584067c0 19.465384 15.93467 35.237456 35.562653 35.237455 9.593322 0 18.280737-3.762998 24.668542-9.872062l308.26386-211.378278v-0.023228c6.713002-6.387805 10.870883-15.377189 10.870883-25.365394v-0.13937c0-9.918519-4.15788-18.907903-10.870883-25.342165z m0 0" p-id="11785" fill="#EC4141"></path></svg>