<?xml version="1.0" standalone="no"?><!DOCTYPE svg PUBLIC "-//W3C//DTD SVG 1.1//EN" "http://www.w3.org/Graphics/SVG/1.1/DTD/svg11.dtd"><svg t="1642670489635" class="icon" viewBox="0 0 1024 1024" version="1.1" xmlns="http://www.w3.org/2000/svg" p-id="2131" width="15" height="15" xmlns:xlink="http://www.w3.org/1999/xlink"><defs><style type="text/css"></style></defs><path d="M512 799.44c-24.12586667 0-48.2816-2.19413333-71.33546667-6.58453333l-167.84 102.048v-168.96c-87.7888-61.45386667-143.712-155.792-143.712-261.12106667 0-185.41226667 171.1232-335.72693333 382.8864-335.72693333 211.73013333 0 382.88533333 150.31466667 382.88533334 335.72693333S723.72906667 799.44 512 799.44z m0-622.0608c-185.42826667 0-335.7408 128.36693333-335.7408 287.44426667 0 97.6384 57.06133333 183.21493333 142.64 234.78186666V811.52l113.01973333-68.02133333c26.30186667 5.48053333 52.64213333 8.7616 81.18506667 8.7616 185.39946667 0 335.712-128.36693333 335.712-287.43786667C847.7056 305.74506667 697.39413333 177.3792 512 177.3792z m167.8368 263.30026667H344.12906667c-13.16693333 0-24.12693333-10.976-24.12693334-24.12693334 0-13.16693333 10.95893333-24.13866667 24.128-24.13866666h335.70666667c13.20213333 0 24.16106667 10.9728 24.16106667 24.13866666-0.00106667 13.152-10.96 24.128-24.16 24.128z m-287.42613333 95.44533333h239.17546666c13.168 0 24.12586667 10.98986667 24.12586667 24.14186667 0 13.16906667-10.9568 24.1408-24.12586667 24.1408H392.41066667c-13.1648 0-24.1248-10.97173333-24.1248-24.1408 0-13.152 10.96106667-24.14293333 24.1248-24.14293334z m0 0" p-id="2132"></path></svg>