<?xml version="1.0" standalone="no"?><!DOCTYPE svg PUBLIC "-//W3C//DTD SVG 1.1//EN" "http://www.w3.org/Graphics/SVG/1.1/DTD/svg11.dtd"><svg t="1638611886192" class="icon" viewBox="0 0 1024 1024" version="1.1" xmlns="http://www.w3.org/2000/svg" p-id="3357" width="20" height="20" xmlns:xlink="http://www.w3.org/1999/xlink"><defs><style type="text/css"></style></defs><path d="M936.11008 828.50816h-29.02016V127.15008H278.272v701.35808H249.2416V98.12992h686.86848z" p-id="3358"></path><path d="M194.9696 936.13056a81.23392 81.23392 0 0 1-25.69216-4.37248 103.40352 103.40352 0 0 1-69.8368-115.05664c7.20896-44.56448 46.26432-92.18048 134.22592-92.18048v29.02016c-59.2384 0-98.70336 25.35424-105.5744 67.79904-5.04832 31.19104 10.62912 69.67296 50.35008 82.88256 15.14496 5.02784 28.66176 3.36896 40.18176-4.94592 17.92-12.92288 30.42304-42.02496 30.42304-70.7584h29.0304c0 38.67648-16.67072 75.70432-42.47552 94.3104-12.25728 8.82688-26.01984 13.30176-40.63232 13.30176zM852.81792 936.13056a81.23392 81.23392 0 0 1-25.69216-4.37248 103.424 103.424 0 0 1-69.84704-115.05664c7.2192-44.56448 46.27456-92.18048 134.22592-92.18048v29.02016c-59.2384 0-98.70336 25.35424-105.5744 67.79904-5.04832 31.19104 10.61888 69.67296 50.35008 82.88256 15.12448 5.0176 28.65152 3.36896 40.18176-4.93568 17.90976-12.93312 30.43328-42.02496 30.43328-70.76864h29.02016c0 38.67648-16.67072 75.70432-42.46528 94.3104-12.25728 8.82688-26.01984 13.30176-40.63232 13.30176zM265.80992 291.16416h655.36v30.72h-655.36z" p-id="3359"></path></svg>