<?xml version="1.0" standalone="no"?><!DOCTYPE svg PUBLIC "-//W3C//DTD SVG 1.1//EN" "http://www.w3.org/Graphics/SVG/1.1/DTD/svg11.dtd"><svg t="1640158958530" class="icon" viewBox="0 0 1024 1024" version="1.1" xmlns="http://www.w3.org/2000/svg" p-id="2041" width="25" height="25" xmlns:xlink="http://www.w3.org/1999/xlink"><defs><style type="text/css"></style></defs><path d="M581.5 221.5c-11.3-7.6-25.7-9.1-38.3-3.9L278.8 340.9H169c-22.6 0-41 18.4-41 41v260.4c0 22.6 18.4 41 41 41h109.8L542.1 806l1.2 0.5c5 2 10.2 3 15.5 3 8 0 16-2.4 22.8-7a40.92 40.92 0 0 0 18.1-34v-513c-0.1-13.7-6.8-26.4-18.2-34zM549 753.4L297.6 636l-1.1-0.5c-4.9-2-10.1-3-15.5-3H178.6v-241H281c5.3 0 10.5-1 15.5-3L549 270.6v482.8zM708 357.9c-9.9-9.9-25.9-9.9-35.8 0-9.9 9.9-9.9 25.9 0 35.8 63.2 63.2 63.2 166.2 0 229.4-9.9 9.9-9.9 25.9 0 35.8 4.9 4.9 11.4 7.4 17.9 7.4s13-2.5 17.9-7.4c82.9-83 82.9-218 0-301z" p-id="2042"></path><path d="M796.8 268.5c-9.9-9.9-25.9-9.9-35.8 0-9.9 9.9-9.9 25.9 0 35.8 112.5 112.5 112.5 295.6 0 408.2-9.9 9.9-9.9 25.9 0 35.8 4.9 4.9 11.4 7.4 17.9 7.4s13-2.5 17.9-7.4c132.3-132.3 132.3-347.5 0-479.8z" p-id="2043"></path></svg>